<?xml version="1.0" encoding="utf-8"?>
<!-- Generator: Adobe Illustrator 25.2.3, SVG Export Plug-In . SVG Version: 6.00 Build 0)  -->
<svg version="1.1" id="Layer_1" xmlns="http://www.w3.org/2000/svg" xmlns:xlink="http://www.w3.org/1999/xlink" x="0px" y="0px"
	 viewBox="0 0 500 500" style="enable-background:new 0 0 500 500;" xml:space="preserve">
<style type="text/css">
	.st0{fill:#EFE3B1;}
	.st1{fill:#2F2E43;}
	.st2{fill:#E2E3E4;}
	.st3{fill:#DFDFE0;}
	.st4{fill:#143F8F;}
	.st5{opacity:0.2;fill:#272223;enable-background:new    ;}
	.st6{fill:#F8A8AB;}
	.st7{fill:#043787;}
	.st8{opacity:0.9;}
</style>
<g>
	<g>
		<polygon class="st0" points="308.2,101.2 330.3,108.5 330.3,76.7 310.3,76.7 		"/>
		<circle class="st0" cx="327.5" cy="63.4" r="22"/>
		<path class="st1" d="M321.7,65.1l3,3.7l5.5-9.6c0,0,7,0.4,7-4.8s6.4-5.3,6.4-5.3s9.1-15.9-9.8-11.7c0,0-13.1-9-19.6-1.3
			c0,0-19.9,10-14.2,27.5l9.5,18l2.1-4.1C311.7,77.4,310.4,60.3,321.7,65.1L321.7,65.1L321.7,65.1z"/>
		<rect x="301.6" y="431.4" class="st0" width="18" height="25.8"/>
		<path class="st1" d="M317.6,471.5c-3.1,0.3-18.6,1.5-19.3-2c-0.7-3.3,0.3-6.7,0.5-7.1c1.5-14.8,2-15,2.4-15
			c0.5-0.2,2.1,0.6,4.6,2.2l0.2,0.1l0,0.2c0,0.2,1.1,5.7,6.4,4.8c3.6-0.6,4.8-1.4,5.1-1.8c-0.3-0.1-0.7-0.4-0.9-0.8
			c-0.4-0.6-0.5-1.4-0.2-2.3c0.7-2.5,2.7-6.1,2.8-6.2l0.2-0.4l20.5,13.9l12.7,3.6c1,0.3,1.7,1,2.1,1.9l0,0c0.5,1.3,0.2,2.8-0.8,3.7
			c-2.3,2.1-6.9,5.6-11.7,6.1c-1.3,0.1-3,0.2-4.9,0.2C329.3,472.4,317.7,471.6,317.6,471.5L317.6,471.5L317.6,471.5z"/>
		<path class="st1" d="M342.6,210.5l-47.4-2.4c0,0-7.3,27.5,1.9,56.2l1.1,172.8H325l25.2-178.3L342.6,210.5L342.6,210.5L342.6,210.5
			z"/>
		<path class="st2" d="M334.7,95l-26-13.8c0,0-28,41-24.2,63.2c3.9,22.2,10.8,63.5,10.8,63.5l57.4,2.4l-10-81.4L334.7,95L334.7,95
			L334.7,95z"/>
		<rect x="314.3" y="431.4" class="st0" width="18" height="25.8"/>
		<path class="st1" d="M330.4,471.5c-3.1,0.3-18.6,1.5-19.3-2c-0.7-3.3,0.3-6.7,0.5-7.1c1.5-14.8,2-15,2.4-15
			c0.5-0.2,2.1,0.6,4.6,2.2l0.2,0.1l0,0.2c0,0.2,1.1,5.7,6.4,4.8c3.6-0.6,4.8-1.4,5.1-1.8c-0.3-0.1-0.7-0.4-0.9-0.8
			c-0.4-0.6-0.5-1.4-0.2-2.3c0.7-2.5,2.7-6.1,2.8-6.2l0.2-0.4l20.5,13.9l12.7,3.6c1,0.3,1.7,1,2.1,1.9l0,0c0.5,1.3,0.2,2.8-0.8,3.7
			c-2.3,2.1-6.9,5.6-11.7,6.1c-1.3,0.1-3,0.2-4.9,0.2C342.1,472.4,330.5,471.6,330.4,471.5L330.4,471.5L330.4,471.5z"/>
		<path class="st1" d="M352.6,210.5l-57.4-2.4c0,0-7.3,27.5,1.9,56.2l11.1,172.8h26.8l25.2-178.3L352.6,210.5L352.6,210.5z"/>
		<path class="st3" d="M346.7,323.3c-4,0-8.4-1-12.7-2c-3.2-0.7-6-0.9-8.3-1c-3.4-0.2-6.2-0.4-7.7-2.4c-1.5-2-1.5-5.4,0-12
			c2-8.8,6.4-23,11.8-34.6c7-15,13.7-21.9,19.9-20.5c8.4,1.9,11.7,15.9,13,24c1.7,11.4,1.6,24.9-0.4,33.7l0,0
			C359.8,320.2,353.8,323.3,346.7,323.3L346.7,323.3L346.7,323.3z M348.3,253.2c-4.6,0-10.2,6.7-16,19.1c-5.3,11.4-9.7,25.3-11.6,34
			c-1.3,5.6-1.4,8.6-0.5,9.9c0.8,1.1,2.9,1.2,5.7,1.4c2.4,0.1,5.3,0.3,8.7,1.1c13.5,3,22,4.1,25.3-10.8c3.6-16,0.9-52.1-10.6-54.7
			C349,253.2,348.7,253.2,348.3,253.2L348.3,253.2L348.3,253.2z"/>
		<polygon class="st4" points="401.3,430.6 272.6,431.4 252.6,422.2 264.3,303.4 276,304 396.5,310.1 		"/>
		<polygon class="st5" points="272.6,431.3 252.6,422.1 264.3,303.3 276,303.9 		"/>
		<path class="st3" d="M348.8,301.3c-2.4,0-5-0.6-7.6-1.2c-1.9-0.4-3.6-0.5-4.9-0.6c-2-0.1-3.7-0.2-4.6-1.4c-0.9-1.2-0.9-3.2,0-7.2
			c1.2-5.3,3.8-13.7,7-20.6c4.2-8.9,8.2-13,11.9-12.2c5,1.1,7,9.5,7.7,14.3c1,6.8,0.9,14.9-0.2,20.1l0,0
			C356.6,299.4,353,301.3,348.8,301.3L348.8,301.3L348.8,301.3z M349.5,259.4c-2.7,0-6.1,4-9.6,11.4c-3.2,6.8-5.8,15.1-6.9,20.3
			c-0.8,3.3-0.8,5.2-0.3,5.9c0.5,0.6,1.7,0.7,3.4,0.8c1.4,0.1,3.1,0.2,5.2,0.7c8.1,1.8,13.1,2.5,15.1-6.4c2.1-9.5,0.5-31-6.3-32.6
			C349.9,259.4,349.7,259.4,349.5,259.4L349.5,259.4z"/>
		<polygon class="st2" points="381.2,365.4 304.4,365.9 292.5,360.5 299.5,289.6 306.5,290 378.3,293.6 		"/>
		<polygon class="st5" points="304.4,365.7 292.5,360.3 299.5,289.4 306.5,289.8 		"/>
		<path id="uuid-2ebd868f-c256-4818-ab73-e4d3dd12d9e3-46-43_2_" class="st6" d="M353.1,253.4c1.3,6.3-1.1,12.1-5.2,12.9
			c-4.2,0.8-8.6-3.7-9.9-10c-0.5-2.5-0.5-5.1,0.3-7.6l-5.1-26.8l13.1-2.1l3.6,26.7C351.5,248.5,352.6,250.9,353.1,253.4L353.1,253.4
			L353.1,253.4z"/>
		<path class="st2" d="M301.6,94.5c0,0,19.2-2.4,21.5,3.3c2.3,5.7,29.3,142.3,29.3,142.3h-17.8L301.6,94.5L301.6,94.5L301.6,94.5z"
			/>
		<polygon class="st0" points="168.1,123.9 148.9,130.2 148.9,102.5 166.4,102.5 		"/>
		<circle class="st0" cx="151.2" cy="90.8" r="19.2"/>
		<path class="st1" d="M156.5,88.9c-3.2-0.1-5.3-3.3-6.6-6.3s-2.5-6.4-5.5-7.6c-2.4-1-6.7,5.8-8.7,4c-2-1.9-0.1-11.5,2.1-13.3
			c2.1-1.7,5-2.1,7.8-2.2c6.7-0.3,13.4,0.2,20,1.6c4.1,0.8,8.2,2.1,11.2,5.1c3.7,3.7,4.7,9.3,4.9,14.6c0.3,5.4,0,11-2.6,15.7
			s-8.1,8.2-13.3,7c-0.5-2.8,0-5.8,0.2-8.7c0.2-2.9,0-6-1.8-8.3c-1.8-2.3-5.5-3.2-7.6-1.2"/>
		<path class="st1" d="M180.2,95.5c1.9-1.4,4.2-2.6,6.6-2.3c2.6,0.3,4.7,2.4,5.4,4.9c0.7,2.5-0.1,5.2-1.7,7.3
			c-1.6,2-3.9,3.4-6.4,4.1c-1.4,0.4-3,0.6-4.4,0c-2-0.9-3.1-3.5-2.3-5.5"/>
		<rect x="143.5" y="432.6" class="st0" width="18" height="25.8"/>
		<path class="st1" d="M126.1,474c-1.9,0-3.6,0-4.9-0.2c-4.8-0.4-9.4-4-11.7-6.1c-1-0.9-1.4-2.4-0.8-3.7l0,0
			c0.4-0.9,1.2-1.6,2.1-1.9l12.7-3.6l20.5-13.9l0.2,0.4c0.1,0.2,2.1,3.8,2.8,6.2c0.3,0.9,0.2,1.7-0.2,2.3c-0.3,0.4-0.6,0.7-0.9,0.8
			c0.4,0.4,1.5,1.2,5.1,1.8c5.2,0.8,6.3-4.6,6.4-4.8l0-0.2l0.2-0.1c2.5-1.6,4-2.3,4.6-2.2c0.3,0.1,0.9,0.3,2.4,15
			c0.1,0.5,1.2,3.9,0.5,7.1c-0.8,3.5-16.2,2.3-19.3,2C145.6,473.2,134,474,126.1,474L126.1,474L126.1,474z"/>
		
			<rect x="203.3" y="415.4" transform="matrix(0.8485 -0.5292 0.5292 0.8485 -194.4491 177.231)" class="st0" width="18.1" height="25.6"/>
		<path class="st1" d="M192.8,470.4c-2.1,0-4.1-0.3-5.5-0.5c-1.4-0.2-2.4-1.3-2.7-2.7l0,0c-0.2-1,0.1-2,0.8-2.7l8.8-9.8l10.1-22.6
			l0.4,0.2c0.2,0.1,3.8,2.1,5.7,3.8c0.7,0.7,1.1,1.4,1.1,2.1c0,0.5-0.2,0.9-0.4,1.2c0.5,0.1,1.9,0.2,5.3-1.2c4.9-2.1,3-7.3,2.9-7.5
			l-0.1-0.2l0.1-0.2c1.3-2.7,2.2-4.1,2.7-4.3c0.3-0.1,0.9-0.2,10,11.5c0.4,0.3,3.1,2.6,4.2,5.8c1.2,3.4-12.5,10.6-15.3,12
			c-0.1,0.1-14.5,10.5-20.4,13.5C198.1,470,195.4,470.4,192.8,470.4L192.8,470.4L192.8,470.4z"/>
		<path class="st1" d="M175.1,218.4h-50.6l-4.6,47L140,439.2h25.8l-10.3-100.4l41.9,90.6l22.9-16.1l-32.7-84.6c0,0,11.7-73.7,2.5-92
			C180.9,218.4,175.1,218.4,175.1,218.4L175.1,218.4L175.1,218.4z"/>
		<polygon class="st4" points="200.3,221.3 119.8,221.3 144,117.2 179,117.2 		"/>
		<path id="uuid-f899ad7f-3d0f-4b30-ad3c-9c1473a48add-47-44_2_" class="st0" d="M99.9,115.3c-1.3-6.3,1.1-12.1,5.2-12.9
			s8.6,3.7,9.9,10c0.5,2.5,0.5,5.1-0.3,7.6l5.1,26.8l-13.1,2.1l-3.6-26.7C101.5,120.2,100.4,117.8,99.9,115.3L99.9,115.3z"/>
		<path class="st7" d="M177.9,117.2h-30.7L126.5,159l-7.9-31.2l-17.2,1.8c0,0,4.1,60.9,21.9,58.9s59.4-57,54.9-70.9h-0.2V117.2z"/>
		<path class="st3" d="M207.4,314.8c-2.4,0-5-0.6-7.6-1.2c-1.9-0.4-3.6-0.5-4.9-0.6c-2-0.1-3.7-0.2-4.6-1.4c-0.9-1.2-0.9-3.2,0-7.2
			c1.2-5.3,3.8-13.7,7-20.6c4.2-8.9,8.2-13,11.9-12.2c5,1.1,7,9.5,7.7,14.3c1,6.8,0.9,14.9-0.2,20.1l0,0
			C215.2,312.9,211.7,314.8,207.4,314.8L207.4,314.8L207.4,314.8z M208.2,272.9c-2.7,0-6.1,4-9.6,11.4c-3.2,6.8-5.8,15.1-6.9,20.3
			c-0.8,3.3-0.8,5.2-0.3,5.9c0.5,0.6,1.7,0.7,3.4,0.8c1.4,0.1,3.1,0.2,5.2,0.7c8.1,1.8,13.1,2.5,15.1-6.4c2.1-9.5,0.5-31-6.3-32.6
			C208.6,272.9,208.4,272.9,208.2,272.9L208.2,272.9z"/>
		<polygon class="st2" points="239.9,378.6 163.1,379.1 151.2,373.6 158.2,302.7 165.2,303.1 237,306.7 		"/>
		<polygon class="st5" points="163.1,379.3 151.2,373.8 158.2,302.9 165.2,303.3 		"/>
		<path id="uuid-aa721d86-32e3-4ace-957f-0814f6d1eb89-48-45_2_" class="st6" d="M212.6,275.6c1.3,6.3-1.1,12.1-5.2,12.9
			c-4.2,0.8-8.6-3.7-9.9-10c-0.5-2.5-0.5-5.1,0.3-7.6l-5.1-26.8l13.1-2.1l3.6,26.7C211,270.7,212.1,273.1,212.6,275.6L212.6,275.6z"
			/>
		<path class="st7" d="M160.5,117.2c0,0,17.5-0.7,18.5,0c4.8,3.9,32.9,145,32.9,145h-17.8L160.5,117.2L160.5,117.2z"/>
	</g>
	<g id="الشعار_14_" class="st8">
		<g>
			<path class="st4" d="M334.1,318.8c0,0.3,0,1.1,0,1.4c-0.1,0-0.2,0.1-0.3,0.2c-2.8,1.3-4.9,3.4-6.3,6.2c-0.7,1.4-1.2,2.9-1.3,4.4
				c-0.1,0.6-0.1,1.2-0.1,1.8c0,7.4,0,14.7,0,22.1c0,0.2,0,0.3,0,0.5c0,0,0.1,0,0.1,0c12.5,0,25,0,37.5,0c0,0,0.1,0,0.1,0
				c0-0.1,0-0.1,0-0.2c0-0.1,0-0.2,0-0.3c0-7.3,0-14.6,0-21.8c0-0.6,0-1.1-0.1-1.7c-0.1-1.5-0.5-2.9-1.1-4.3c-1.4-3-3.6-5.2-6.5-6.7
				c-0.1-0.1-0.2-0.1-0.4-0.2c0-0.3,0-1.1,0-1.5c0.1,0,0.2,0,0.3,0.1c0.9,0.4,1.7,0.8,2.5,1.4c3.1,2.2,5.2,5.1,6.2,8.8
				c0.3,1.2,0.4,2.4,0.4,3.6c0,4.5,0,9.1,0,13.6c0,3.3,0,6.7,0,10c0,0.1,0,0.3,0,0.4c-0.1,0-0.1,0-0.2,0c-0.1,0-0.2,0-0.3,0
				c-13.2,0-26.4,0-39.6,0c-0.2,0-0.3,0-0.5,0c-0.1-0.1-0.1-0.3-0.1-0.4c0-0.8,0-1.6,0-2.4c0-7.1,0-14.3,0-21.4c0-2.5,0.6-4.8,1.7-7
				c1.7-3.1,4.1-5.4,7.4-6.8C333.9,318.8,334,318.7,334.1,318.8z"/>
			<path class="st4" d="M344.9,342.1c4.5,0,9.1,0,13.6,0c0.3,0,0.5,0,0.8,0.1c1,0.3,1.6,1.1,1.6,2.1c0,1,0,2,0,3c0,1.2,0,2.3,0,3.5
				c0,0.3,0,0.6-0.2,0.9c-0.4,0.9-1.1,1.3-2,1.4c-0.1,0-0.2,0-0.2,0c-9,0-18.1,0-27.1,0c-0.3,0-0.5,0-0.8-0.1
				c-1-0.3-1.6-1.1-1.6-2.1c0-2.2,0-4.4,0-6.6c0-0.1,0-0.2,0-0.3c0.1-0.9,0.9-1.8,2.2-1.9c0.1,0,0.2,0,0.4,0
				C336,342.1,340.5,342.1,344.9,342.1z M344.9,351.7c4.5,0,9,0,13.5,0c0.1,0,0.2,0,0.3,0c0.4,0,0.7-0.3,0.8-0.8c0-0.1,0-0.2,0-0.3
				c0-2,0-4,0-6.1c0-0.1,0-0.1,0-0.2c0-0.5-0.3-0.8-0.8-0.9c-0.1,0-0.2,0-0.3,0c-5.8,0-11.6,0-17.4,0c-3.1,0-6.3,0-9.4,0
				c-0.2,0-0.3,0-0.5,0c-0.3,0.1-0.5,0.2-0.6,0.5c0,0.1-0.1,0.2-0.1,0.4c0,2.1,0,4.2,0,6.4c0,0.1,0,0.2,0,0.3
				c0.1,0.3,0.4,0.6,0.7,0.6c0.1,0,0.2,0,0.3,0C335.9,351.7,340.4,351.7,344.9,351.7z"/>
			<path class="st4" d="M337.3,337c0.7,0,1.4,0,2.1,0c0.1,0,0.2,0,0.3,0c0-0.1,0-0.2,0-0.3c-0.1-0.4,0-0.8,0-1.2c0-0.7,0-1.5,0-2.2
				c0-0.4,0-0.7,0.1-1c0.3-1.2,1.1-1.8,2.2-1.9c0.3,0,0.5,0,0.8,0c0.1,0,0.2,0,0.3-0.1c0-0.1,0-0.1,0-0.2c0.1-1.1,0.8-1.9,1.8-2.2
				c1.5-0.3,2.6,0.7,2.8,1.8c0.1,0.3,0.1,0.8,0,1.3c-0.1,0-0.2,0.1-0.2,0.1c-0.2,0.1-0.3,0.3-0.2,0.5c0.1,0.2,0.2,0.3,0.4,0.3
				c0.2,0,0.4-0.1,0.4-0.4c0-0.1,0-0.2,0-0.3c0-0.2,0-0.5,0-0.8c0.1,0,0.1,0,0.2,0c0.2,0,0.4,0.1,0.6,0.1c1,0.3,1.6,0.9,1.8,1.9
				c0.1,0.3,0.1,0.5,0.1,0.8c0,0.9,0,1.8,0,2.7c0,0.7,0,1.4,0,2.1c0,0.1,0,0.3,0,0.4c-0.1,0.4-0.3,0.5-0.7,0.6c-0.1,0-0.2,0-0.4,0
				c-2.2,0-4.4-0.1-6.7-0.1c-1.2,0-2.4,0-3.5-0.1c-1.6,0-3.2-0.1-4.8-0.1c-0.6,0-1.1,0-1.7,0c-0.3,0-0.7,0-1-0.1
				c-1.1-0.3-1.7-1-1.9-2c-0.1-0.4-0.1-0.8-0.1-1.2c0-0.1,0-0.2,0-0.2c0.1-0.4,0.3-0.7,0.8-0.7c0.1,0,0.3,0,0.4,0
				c0.4,0.1,0.6,0.3,0.6,0.7c0,0.1,0,0.3,0,0.4c0,0.1,0,0.3,0,0.4c0.1,0.4,0.3,0.6,0.7,0.7c0.1,0,0.2,0,0.4,0c0.6,0,1.2,0,1.8,0
				c0.1,0,0.1,0,0.2,0c0-0.1,0-0.2,0-0.3c0-1.3,0.1-2.5,0.1-3.8c0-1.4,0-2.7,0.1-4.1c0-0.2,0-0.3,0.1-0.5c0.1-0.3,0.3-0.6,0.7-0.6
				c0.2,0,0.4,0,0.6,0c0.4,0,0.6,0.3,0.7,0.6c0,0.1,0,0.3,0,0.4c0,1.3-0.1,2.5-0.1,3.8c0,0.7,0,1.4,0,2c0,0.7,0,1.3,0,2
				C337.2,336.7,337.2,336.8,337.3,337z M344.3,337.1c0-0.1,0-0.1,0-0.1c0-1.5,0.1-2.9,0.1-4.4c0,0,0-0.1,0-0.1c-0.1,0-0.2,0-0.2,0
				c-0.5,0-1,0-1.6,0c-0.1,0-0.2,0-0.3,0.1c-0.3,0.1-0.5,0.3-0.6,0.6c0,0.2-0.1,0.4-0.1,0.5c0,0.8,0,1.5,0,2.3c0,0.2,0,0.3,0,0.5
				c0.1,0.4,0.3,0.6,0.6,0.7c0.1,0,0.2,0.1,0.3,0.1c0.5,0,1,0,1.5,0C344.1,337.1,344.2,337.1,344.3,337.1z M346.4,332.5
				c0,0.2,0,0.3,0,0.5c0,1.1,0,2.2-0.1,3.3c0,0.2,0,0.5,0,0.7c0,0.1,0,0.1,0,0.2c0,0,0.1,0,0.1,0c0.8,0,1.5,0,2.3,0.1
				c0.1,0,0.1,0,0.2,0c0-0.1,0-0.2,0-0.2c0-1.1,0-2.2,0.1-3.3c0-0.1,0-0.2,0-0.3c-0.1-0.5-0.3-0.8-0.8-0.8c-0.1,0-0.1,0-0.2,0
				c-0.4,0-0.9,0-1.3,0C346.6,332.4,346.5,332.4,346.4,332.5z M343.6,331c-0.1,0-0.2,0.1-0.3,0.1c-0.2,0.1-0.2,0.3-0.2,0.5
				c0.1,0.2,0.2,0.3,0.4,0.3c0.2,0,0.4-0.1,0.4-0.3c0-0.1,0-0.2,0-0.2c0-0.2,0-0.5,0-0.7c0-0.1,0-0.1,0-0.2c0.1,0,0.1,0,0.2,0
				c0.5,0,0.9,0,1.4,0c0.5,0,1,0,1.6,0c0.1,0,0.2,0,0.3-0.1c0,0,0,0,0-0.1c0,0,0,0,0-0.1c0-0.7-0.3-1.3-1-1.7
				c-0.6-0.4-1.3-0.4-1.9,0c-0.6,0.4-0.9,0.9-1,1.6C343.5,330.5,343.6,330.8,343.6,331z"/>
			<path class="st4" d="M355.3,319.4c0,0.6,0,1.2,0,1.8c0,0.2,0.1,0.3,0.2,0.5c0.8,0.8,0.4,2.2-0.7,2.5c-1.1,0.3-1.8-0.6-1.9-1.3
				c0-0.5,0.1-0.9,0.4-1.2c0.1-0.1,0.2-0.3,0.2-0.4c0-1,0-2,0-2.9c-0.1-4.1-3-7.3-6.5-8.2c-4.7-1.1-9.3,1.9-10.3,6.5
				c-0.1,0.5-0.2,1.1-0.2,1.7c0,1,0,1.9,0,2.9c0,0,0,0.1,0,0.1c0,0.1,0,0.2,0.1,0.3c0.2,0.2,0.4,0.5,0.4,0.8
				c0.2,0.8-0.3,1.6-1.1,1.8c-0.9,0.2-1.5-0.4-1.7-0.9c-0.2-0.5-0.1-1.1,0.3-1.5c0-0.1,0.1-0.1,0.1-0.1c0.1-0.1,0.1-0.2,0.1-0.3
				c0-0.2,0-0.4,0-0.6c0-0.8,0-1.5,0-2.3c0-4.6,3.2-8.9,7.9-10c5.8-1.4,11.2,2.4,12.4,7.8c0.2,0.7,0.2,1.5,0.2,2.2
				C355.3,318.7,355.3,319,355.3,319.4C355.3,319.4,355.3,319.4,355.3,319.4z"/>
			<path class="st4" d="M357.2,337.2c0-0.1,0-0.2,0-0.3c0-0.2,0-0.4,0-0.6c0-1.6,0.1-3.2,0.1-4.7c0-0.1,0-0.3,0.1-0.4
				c0.1-0.3,0.3-0.5,0.6-0.6c0.2,0,0.4,0,0.6,0c0.4,0.1,0.6,0.3,0.6,0.7c0,0.2,0,0.3,0,0.5c0,2-0.1,4.1-0.1,6.1c0,0.2,0,0.5,0,0.7
				c-0.1,0.4-0.3,0.7-0.7,0.7c-0.1,0-0.2,0-0.2,0c-1.1,0-2.3,0-3.4-0.1c-0.3,0-0.6-0.1-0.8-0.1c-0.1,0-0.2,0-0.3-0.1
				c-1-0.3-1.6-0.9-1.7-1.9c0-0.3-0.1-0.5-0.1-0.8c0-0.7,0-1.4,0-2.1c0-0.4,0-0.8,0-1.2c0-1.4,0-2.7,0.1-4.1c0-0.2,0-0.3,0.1-0.5
				c0.1-0.3,0.3-0.5,0.6-0.5c0.2,0,0.3,0,0.5,0c0.4,0,0.7,0.3,0.8,0.7c0,0.1,0,0.2,0,0.4c0,1.8-0.1,3.7-0.1,5.5c0,0.5,0,1.1,0,1.6
				c0,0.1,0,0.3,0,0.4c0.1,0.3,0.3,0.5,0.6,0.6c0.1,0,0.2,0.1,0.3,0.1c0.7,0,1.5,0,2.2,0.1C357,337.2,357.1,337.2,357.2,337.2z"/>
			<path class="st4" d="M352.9,317.9c0.1,0.3,0.1,1.1,0,1.4c-0.1,0-0.2,0-0.3,0c-0.6-0.1-1.2-0.2-1.8-0.2c-0.2,0-0.5,0-0.7,0
				c-3.4,0-6.8,0-10.2,0c-0.9,0-1.8,0-2.6,0.2c-0.1,0-0.1,0-0.2,0c0,0,0,0-0.1,0c-0.1-0.3-0.1-0.9,0-1.3c0.1,0,0.1,0,0.2-0.1
				c0.8-0.1,1.5-0.2,2.3-0.2c3.7,0,7.3,0,11,0C351.3,317.7,352.1,317.8,352.9,317.9z"/>
			<path class="st4" d="M332.2,330.3c0,0.7,0,1.5,0,2.2c0,0.1,0,0.2,0,0.3c0,0.4-0.4,0.9-1,0.9c-0.5,0-0.9-0.4-1-0.9
				c0-0.1,0-0.2,0-0.3c0-1.4,0.1-2.8,0.1-4.2c0-0.2,0-0.4,0-0.5c0.1-0.4,0.3-0.6,0.7-0.7c0.2,0,0.4,0,0.6,0c0.3,0,0.6,0.2,0.6,0.6
				c0,0.2,0.1,0.3,0,0.5C332.2,328.8,332.2,329.6,332.2,330.3C332.2,330.3,332.2,330.3,332.2,330.3z"/>
			<path class="st4" d="M358.3,340.7c0,0.6-0.4,1-1,1c-0.5,0-1-0.4-1-1c0-0.7,0.5-1,1-1C357.9,339.7,358.3,340.1,358.3,340.7z"/>
			<path class="st4" d="M355.8,340.6c0,0.5-0.4,1-1,1c-0.5,0-1-0.4-1-1c0-0.6,0.4-1,1-1C355.3,339.6,355.8,340,355.8,340.6z"/>
			<path class="st4" d="M352.4,350.6c0-0.1,0-0.2,0-0.3c0-0.9,0.1-1.8,0.1-2.7c0-0.1,0-0.2,0-0.3c0-0.3,0-0.6,0-0.8
				c0-0.4,0-0.7,0-1.1c0-0.2,0-0.4,0-0.5c0-0.1,0-0.1,0-0.2c0-0.1,0.1-0.2,0.2-0.2c0.2,0,0.5,0,0.7,0c0.4,0,0.7,0,1.1,0.1
				c0.1,0,0.3,0,0.4,0c0.4,0,0.8,0,1.2,0.1c0.7,0.1,1.2,0.5,1.7,1c0.1,0.1,0.2,0.3,0.2,0.4c0.2,0.6,0.3,1.2,0.3,1.9
				c0,0.2,0,0.5-0.1,0.7c0,0.1-0.1,0.2-0.1,0.3c-0.1,0.4-0.4,0.8-0.7,1.1c-0.5,0.5-1,0.7-1.6,0.8c-0.4,0-0.8,0.1-1.2,0
				c-0.2,0-0.4,0-0.5,0c-0.4,0-0.8,0-1.2,0C352.8,350.7,352.6,350.7,352.4,350.6z M354.3,349.2c0.1,0,0.1,0,0.2,0c0.3,0,0.7,0,1,0
				c0.5-0.1,0.9-0.4,1.1-0.9c0.1-0.3,0.1-0.7,0.1-1c0-0.7-0.7-1.3-1.3-1.3c-0.3,0-0.5,0-0.8,0c0,0-0.1,0-0.1,0
				c-0.2,0-0.2,0.1-0.2,0.2c0,0.1,0,0.3,0,0.4c0,0.6,0,1.3,0,1.9C354.2,348.8,354.2,349,354.3,349.2z"/>
			<path class="st4" d="M350.1,348.5c0.2,0.4,0.5,0.8,0.8,1.2c0.2,0.4,0.5,0.7,0.8,1.1c-0.1,0-0.2,0.1-0.2,0.1c-0.1,0-0.3,0-0.4,0
				c-0.4,0-0.7,0-1.1,0c-0.2,0-0.3,0-0.3-0.2c-0.3-0.4-0.5-0.8-0.8-1.2c-0.1-0.2-0.2-0.4-0.4-0.5c-0.1-0.2-0.2-0.2-0.4-0.2
				c-0.1,0-0.1,0-0.2,0c-0.1,0-0.1,0.1-0.1,0.1c0,0.1,0,0.2,0,0.3c0,0.3,0,0.6,0,0.9c0,0.2,0,0.5,0,0.7c-0.1,0-0.2,0-0.2,0
				c-0.4,0-0.7,0-1.1,0c-0.1,0-0.2,0-0.4-0.1c-0.1-0.1-0.1-0.3-0.1-0.4c0.1-0.5,0.1-1,0.1-1.5c0-0.4,0-0.7,0-1.1c0-0.3,0-0.5,0-0.8
				c0-0.5,0-1,0.1-1.6c0-0.1,0-0.3,0-0.4c0-0.1,0-0.2,0-0.3c0-0.1,0.1-0.2,0.2-0.2c0,0,0.1,0,0.1,0c0.1,0,0.2,0,0.3,0
				c0.6,0.1,1.3,0.1,1.9,0.1c0.3,0,0.6,0,1,0.1c1,0.2,1.5,0.6,1.9,1.5c0.2,0.8,0.1,1.5-0.5,2c-0.1,0.1-0.3,0.2-0.5,0.3
				C350.3,348.4,350.2,348.4,350.1,348.5z M347.7,345.9c-0.1,0.4,0,0.8,0,1.2c0,0.1,0,0.2,0,0.2c0.1,0,0.2,0.1,0.3,0.1
				c0.1,0,0.2,0,0.2,0c0.3,0,0.6,0,1,0c0.3,0,0.5-0.2,0.5-0.5c0-0.1,0-0.3,0-0.4c-0.1-0.4-0.2-0.5-0.6-0.6c-0.3,0-0.7-0.1-1,0
				C348,345.8,347.9,345.9,347.7,345.9z"/>
			<path class="st4" d="M340.3,344.5c0.1,0,0.3-0.1,0.4-0.1c0.4,0,0.8,0,1.3,0c0.2,0,0.3,0.1,0.3,0.2c0.1,0.3,0.2,0.5,0.3,0.8
				c0.1,0.3,0.3,0.7,0.4,1c0.1,0.2,0.1,0.3,0.2,0.5c0.4,0.9,0.7,1.8,1.2,2.7c0.1,0.2,0.2,0.5,0.3,0.8c0.1,0.2,0,0.3-0.2,0.4
				c0,0-0.1,0-0.1,0c-0.4-0.1-0.7,0-1.1,0c-0.2,0-0.3,0-0.3-0.2c-0.1-0.2-0.1-0.4-0.2-0.6c0-0.1-0.1-0.2-0.3-0.2
				c-0.3,0-0.6-0.1-0.9-0.1c-0.5,0-0.9,0-1.4,0c-0.1,0-0.2,0-0.2,0c-0.1,0-0.2,0.1-0.2,0.1c-0.1,0.1-0.1,0.3-0.2,0.4
				c-0.2,0.5-0.2,0.5-0.7,0.5c-0.3,0-0.6,0-0.9,0c-0.3,0-0.4-0.1-0.3-0.4c0.1-0.2,0.2-0.5,0.3-0.7c0.7-1.5,1.4-2.9,2.1-4.4
				C340.1,344.9,340.2,344.7,340.3,344.5z M341.5,348.2c0.4,0,0.4-0.2,0.3-0.4c-0.1-0.4-0.2-0.7-0.3-1.1c0-0.1-0.1-0.3-0.3-0.3
				c-0.1,0-0.2,0.1-0.3,0.2c-0.1,0.4-0.3,0.7-0.4,1.1c0,0.1,0,0.1-0.1,0.2c0,0.1,0,0.2,0.1,0.2c0,0,0.1,0,0.1,0
				C341,348.1,341.3,348.2,341.5,348.2z"/>
			<path class="st4" d="M336.9,345.3c0,0.2-0.1,0.2-0.2,0.3c-0.2,0.2-0.3,0.3-0.5,0.5c0,0-0.1,0.1-0.2,0.1c-0.1,0.1-0.2,0.1-0.3,0
				c-0.1,0-0.1-0.1-0.2-0.1c-0.7-0.4-1.4-0.4-2.1,0c-0.2,0.1-0.4,0.3-0.5,0.6c-0.2,0.5-0.3,1.1-0.1,1.6c0.2,0.8,1.1,1.3,1.9,1.1
				c0.3-0.1,0.6-0.2,0.9-0.4c0.1,0,0.1-0.1,0.2-0.1c0.1,0,0.2,0.1,0.3,0.2c0.2,0.3,0.5,0.6,0.7,0.9c0,0,0,0,0,0.1
				c0,0-0.1,0.1-0.1,0.1c-0.5,0.4-1.1,0.7-1.7,0.8c-0.2,0-0.5,0-0.7,0c-0.6,0-1.1-0.1-1.6-0.3c-0.6-0.3-1.1-0.7-1.3-1.3
				c-0.1-0.3-0.2-0.6-0.3-1c0-0.1,0-0.1,0-0.2c0-0.9,0.1-1.8,0.7-2.6c0.5-0.7,1.3-1.1,2.1-1.2c0.6-0.1,1.1,0,1.7,0.1
				c0.2,0,0.3,0.1,0.4,0.2c0.3,0.2,0.5,0.3,0.8,0.5C336.8,345.2,336.9,345.3,336.9,345.3z"/>
		</g>
	</g>
	<g id="الشعار_12_" class="st8">
		<g>
			<path class="st4" d="M189.3,328.4c0,0.3,0,1.1,0,1.4c-0.1,0-0.2,0.1-0.3,0.2c-2.8,1.3-4.9,3.4-6.3,6.2c-0.7,1.4-1.2,2.9-1.3,4.4
				c-0.1,0.6-0.1,1.2-0.1,1.8c0,7.4,0,14.7,0,22.1c0,0.2,0,0.3,0,0.5c0,0,0.1,0,0.1,0c12.5,0,25,0,37.5,0c0,0,0.1,0,0.1,0
				c0-0.1,0-0.1,0-0.2c0-0.1,0-0.2,0-0.3c0-7.3,0-14.6,0-21.8c0-0.6,0-1.1-0.1-1.7c-0.1-1.5-0.5-2.9-1.1-4.3c-1.4-3-3.6-5.2-6.5-6.7
				c-0.1-0.1-0.2-0.1-0.4-0.2c0-0.3,0-1.1,0-1.5c0.1,0,0.2,0,0.3,0.1c0.9,0.4,1.7,0.8,2.5,1.4c3.1,2.2,5.2,5.1,6.2,8.8
				c0.3,1.2,0.4,2.4,0.4,3.6c0,4.5,0,9.1,0,13.6c0,3.3,0,6.7,0,10c0,0.1,0,0.3,0,0.4c-0.1,0-0.1,0-0.2,0c-0.1,0-0.2,0-0.3,0
				c-13.2,0-26.4,0-39.6,0c-0.2,0-0.3,0-0.5,0c-0.1-0.1-0.1-0.3-0.1-0.4c0-0.8,0-1.6,0-2.4c0-7.1,0-14.3,0-21.4c0-2.5,0.6-4.8,1.7-7
				c1.7-3.1,4.1-5.4,7.4-6.8C189.1,328.4,189.2,328.4,189.3,328.4z"/>
			<path class="st4" d="M200.1,351.7c4.5,0,9.1,0,13.6,0c0.3,0,0.5,0,0.8,0.1c1,0.3,1.6,1.1,1.6,2.1c0,1,0,2,0,3c0,1.2,0,2.3,0,3.5
				c0,0.3,0,0.6-0.2,0.9c-0.4,0.9-1.1,1.3-2,1.4c-0.1,0-0.2,0-0.2,0c-9,0-18.1,0-27.1,0c-0.3,0-0.5,0-0.8-0.1
				c-1-0.3-1.6-1.1-1.6-2.1c0-2.2,0-4.4,0-6.6c0-0.1,0-0.2,0-0.3c0.1-0.9,0.9-1.8,2.2-1.9c0.1,0,0.2,0,0.4,0
				C191.2,351.7,195.6,351.7,200.1,351.7z M200.1,361.3c4.5,0,9,0,13.5,0c0.1,0,0.2,0,0.3,0c0.4,0,0.7-0.3,0.8-0.8
				c0-0.1,0-0.2,0-0.3c0-2,0-4,0-6.1c0-0.1,0-0.1,0-0.2c0-0.5-0.3-0.8-0.8-0.9c-0.1,0-0.2,0-0.3,0c-5.8,0-11.6,0-17.4,0
				c-3.1,0-6.3,0-9.4,0c-0.2,0-0.3,0-0.5,0c-0.3,0.1-0.5,0.2-0.6,0.5c0,0.1-0.1,0.2-0.1,0.4c0,2.1,0,4.2,0,6.4c0,0.1,0,0.2,0,0.3
				c0.1,0.3,0.4,0.6,0.7,0.6c0.1,0,0.2,0,0.3,0C191.1,361.3,195.6,361.3,200.1,361.3z"/>
			<path class="st4" d="M192.5,346.6c0.7,0,1.4,0,2.1,0c0.1,0,0.2,0,0.3,0c0-0.1,0-0.2,0-0.3c-0.1-0.4,0-0.8,0-1.2
				c0-0.7,0-1.5,0-2.2c0-0.4,0-0.7,0.1-1c0.3-1.2,1.1-1.8,2.2-1.9c0.3,0,0.5,0,0.8,0c0.1,0,0.2,0,0.3-0.1c0-0.1,0-0.1,0-0.2
				c0.1-1.1,0.8-1.9,1.8-2.2c1.5-0.3,2.6,0.7,2.8,1.8c0.1,0.3,0.1,0.8,0,1.3c-0.1,0-0.2,0.1-0.2,0.1c-0.2,0.1-0.3,0.3-0.2,0.5
				c0.1,0.2,0.2,0.3,0.4,0.3c0.2,0,0.4-0.1,0.4-0.4c0-0.1,0-0.2,0-0.3c0-0.2,0-0.5,0-0.8c0.1,0,0.1,0,0.2,0c0.2,0,0.4,0.1,0.6,0.1
				c1,0.3,1.6,0.9,1.8,1.9c0.1,0.3,0.1,0.5,0.1,0.8c0,0.9,0,1.8,0,2.7c0,0.7,0,1.4,0,2.1c0,0.1,0,0.3,0,0.4
				c-0.1,0.4-0.3,0.5-0.7,0.6c-0.1,0-0.2,0-0.4,0c-2.2,0-4.4-0.1-6.7-0.1c-1.2,0-2.4,0-3.5-0.1c-1.6,0-3.2-0.1-4.8-0.1
				c-0.6,0-1.1,0-1.7,0c-0.3,0-0.7,0-1-0.1c-1.1-0.3-1.7-1-1.9-2c-0.1-0.4-0.1-0.8-0.1-1.2c0-0.1,0-0.2,0-0.2
				c0.1-0.4,0.3-0.7,0.8-0.7c0.1,0,0.3,0,0.4,0c0.4,0.1,0.6,0.3,0.6,0.7c0,0.1,0,0.3,0,0.4c0,0.1,0,0.3,0,0.4
				c0.1,0.4,0.3,0.6,0.7,0.7c0.1,0,0.2,0,0.4,0c0.6,0,1.2,0,1.8,0c0.1,0,0.1,0,0.2,0c0-0.1,0-0.2,0-0.3c0-1.3,0.1-2.5,0.1-3.8
				c0-1.4,0-2.7,0.1-4.1c0-0.2,0-0.3,0.1-0.5c0.1-0.3,0.3-0.6,0.7-0.6c0.2,0,0.4,0,0.6,0c0.4,0,0.6,0.3,0.7,0.6c0,0.1,0,0.3,0,0.4
				c0,1.3-0.1,2.5-0.1,3.8c0,0.7,0,1.4,0,2c0,0.7,0,1.3,0,2C192.4,346.3,192.4,346.5,192.5,346.6z M199.4,346.7c0-0.1,0-0.1,0-0.1
				c0-1.5,0.1-2.9,0.1-4.4c0,0,0-0.1,0-0.1c-0.1,0-0.2,0-0.2,0c-0.5,0-1,0-1.6,0c-0.1,0-0.2,0-0.3,0.1c-0.3,0.1-0.5,0.3-0.6,0.6
				c0,0.2-0.1,0.4-0.1,0.5c0,0.8,0,1.5,0,2.3c0,0.2,0,0.3,0,0.5c0.1,0.4,0.3,0.6,0.6,0.7c0.1,0,0.2,0.1,0.3,0.1c0.5,0,1,0,1.5,0
				C199.3,346.8,199.4,346.7,199.4,346.7z M201.6,342.1c0,0.2,0,0.3,0,0.5c0,1.1,0,2.2-0.1,3.3c0,0.2,0,0.5,0,0.7c0,0.1,0,0.1,0,0.2
				c0,0,0.1,0,0.1,0c0.8,0,1.5,0,2.3,0.1c0.1,0,0.1,0,0.2,0c0-0.1,0-0.2,0-0.2c0-1.1,0-2.2,0.1-3.3c0-0.1,0-0.2,0-0.3
				c-0.1-0.5-0.3-0.8-0.8-0.8c-0.1,0-0.1,0-0.2,0c-0.4,0-0.9,0-1.3,0C201.7,342.1,201.7,342.1,201.6,342.1z M198.7,340.6
				c-0.1,0-0.2,0.1-0.3,0.1c-0.2,0.1-0.2,0.3-0.2,0.5c0.1,0.2,0.2,0.3,0.4,0.3c0.2,0,0.4-0.1,0.4-0.3c0-0.1,0-0.2,0-0.2
				c0-0.2,0-0.5,0-0.7c0-0.1,0-0.1,0-0.2c0.1,0,0.1,0,0.2,0c0.5,0,0.9,0,1.4,0c0.5,0,1,0,1.6,0c0.1,0,0.2,0,0.3-0.1c0,0,0,0,0-0.1
				c0,0,0,0,0-0.1c0-0.7-0.3-1.3-1-1.7c-0.6-0.4-1.3-0.4-1.9,0c-0.6,0.4-0.9,0.9-1,1.6C198.7,340.1,198.7,340.4,198.7,340.6z"/>
			<path class="st4" d="M210.4,329c0,0.6,0,1.2,0,1.8c0,0.2,0.1,0.3,0.2,0.5c0.8,0.8,0.4,2.2-0.7,2.5c-1.1,0.3-1.8-0.6-1.9-1.3
				c0-0.5,0.1-0.9,0.4-1.2c0.1-0.1,0.2-0.3,0.2-0.4c0-1,0-2,0-2.9c-0.1-4.1-3-7.3-6.5-8.2c-4.7-1.1-9.3,1.9-10.3,6.5
				c-0.1,0.5-0.2,1.1-0.2,1.7c0,1,0,1.9,0,2.9c0,0,0,0.1,0,0.1c0,0.1,0,0.2,0.1,0.3c0.2,0.2,0.4,0.5,0.4,0.8
				c0.2,0.8-0.3,1.6-1.1,1.8c-0.9,0.2-1.5-0.4-1.7-0.9c-0.2-0.5-0.1-1.1,0.3-1.5c0-0.1,0.1-0.1,0.1-0.1c0.1-0.1,0.1-0.2,0.1-0.3
				c0-0.2,0-0.4,0-0.6c0-0.8,0-1.5,0-2.3c0-4.6,3.2-8.9,7.9-10c5.8-1.4,11.2,2.4,12.4,7.8c0.2,0.7,0.2,1.5,0.2,2.2
				C210.4,328.3,210.4,328.7,210.4,329C210.4,329,210.4,329,210.4,329z"/>
			<path class="st4" d="M212.4,346.8c0-0.1,0-0.2,0-0.3c0-0.2,0-0.4,0-0.6c0-1.6,0.1-3.2,0.1-4.7c0-0.1,0-0.3,0.1-0.4
				c0.1-0.3,0.3-0.5,0.6-0.6c0.2,0,0.4,0,0.6,0c0.4,0.1,0.6,0.3,0.6,0.7c0,0.2,0,0.3,0,0.5c0,2-0.1,4.1-0.1,6.1c0,0.2,0,0.5,0,0.7
				c-0.1,0.4-0.3,0.7-0.7,0.7c-0.1,0-0.2,0-0.2,0c-1.1,0-2.3,0-3.4-0.1c-0.3,0-0.6-0.1-0.8-0.1c-0.1,0-0.2,0-0.3-0.1
				c-1-0.3-1.6-0.9-1.7-1.9c0-0.3-0.1-0.5-0.1-0.8c0-0.7,0-1.4,0-2.1c0-0.4,0-0.8,0-1.2c0-1.4,0-2.7,0.1-4.1c0-0.2,0-0.3,0.1-0.5
				c0.1-0.3,0.3-0.5,0.6-0.5c0.2,0,0.3,0,0.5,0c0.4,0,0.7,0.3,0.8,0.7c0,0.1,0,0.2,0,0.4c0,1.8-0.1,3.7-0.1,5.5c0,0.5,0,1.1,0,1.6
				c0,0.1,0,0.3,0,0.4c0.1,0.3,0.3,0.5,0.6,0.6c0.1,0,0.2,0.1,0.3,0.1c0.7,0,1.5,0,2.2,0.1C212.2,346.8,212.3,346.8,212.4,346.8z"/>
			<path class="st4" d="M208.1,327.5c0.1,0.3,0.1,1.1,0,1.4c-0.1,0-0.2,0-0.3,0c-0.6-0.1-1.2-0.2-1.8-0.2c-0.2,0-0.5,0-0.7,0
				c-3.4,0-6.8,0-10.2,0c-0.9,0-1.8,0-2.6,0.2c-0.1,0-0.1,0-0.2,0c0,0,0,0-0.1,0c-0.1-0.3-0.1-0.9,0-1.3c0.1,0,0.1,0,0.2-0.1
				c0.8-0.1,1.5-0.2,2.3-0.2c3.7,0,7.3,0,11,0C206.4,327.3,207.3,327.4,208.1,327.5z"/>
			<path class="st4" d="M187.4,339.9c0,0.7,0,1.5,0,2.2c0,0.1,0,0.2,0,0.3c0,0.4-0.4,0.9-1,0.9c-0.5,0-0.9-0.4-1-0.9
				c0-0.1,0-0.2,0-0.3c0-1.4,0.1-2.8,0.1-4.2c0-0.2,0-0.4,0-0.5c0.1-0.4,0.3-0.6,0.7-0.7c0.2,0,0.4,0,0.6,0c0.3,0,0.6,0.2,0.6,0.6
				c0,0.2,0.1,0.3,0,0.5C187.4,338.4,187.4,339.2,187.4,339.9C187.4,339.9,187.4,339.9,187.4,339.9z"/>
			<path class="st4" d="M213.5,350.3c0,0.6-0.4,1-1,1c-0.5,0-1-0.4-1-1c0-0.7,0.5-1,1-1C213,349.3,213.5,349.7,213.5,350.3z"/>
			<path class="st4" d="M210.9,350.2c0,0.5-0.4,1-1,1c-0.5,0-1-0.4-1-1c0-0.6,0.4-1,1-1C210.5,349.2,210.9,349.7,210.9,350.2z"/>
			<path class="st4" d="M207.6,360.2c0-0.1,0-0.2,0-0.3c0-0.9,0.1-1.8,0.1-2.7c0-0.1,0-0.2,0-0.3c0-0.3,0-0.6,0-0.8
				c0-0.4,0-0.7,0-1.1c0-0.2,0-0.4,0-0.5c0-0.1,0-0.1,0-0.2c0-0.1,0.1-0.2,0.2-0.2c0.2,0,0.5,0,0.7,0c0.4,0,0.7,0,1.1,0.1
				c0.1,0,0.3,0,0.4,0c0.4,0,0.8,0,1.2,0.1c0.7,0.1,1.2,0.5,1.7,1c0.1,0.1,0.2,0.3,0.2,0.4c0.2,0.6,0.3,1.2,0.3,1.9
				c0,0.2,0,0.5-0.1,0.7c0,0.1-0.1,0.2-0.1,0.3c-0.1,0.4-0.4,0.8-0.7,1.1c-0.5,0.5-1,0.7-1.6,0.8c-0.4,0-0.8,0.1-1.2,0
				c-0.2,0-0.4,0-0.5,0c-0.4,0-0.8,0-1.2,0C208,360.3,207.8,360.3,207.6,360.2z M209.5,358.8c0.1,0,0.1,0,0.2,0c0.3,0,0.7,0,1,0
				c0.5-0.1,0.9-0.4,1.1-0.9c0.1-0.3,0.1-0.7,0.1-1c0-0.7-0.7-1.3-1.3-1.3c-0.3,0-0.5,0-0.8,0c0,0-0.1,0-0.1,0
				c-0.2,0-0.2,0.1-0.2,0.2c0,0.1,0,0.3,0,0.4c0,0.6,0,1.3,0,1.9C209.3,358.4,209.3,358.6,209.5,358.8z"/>
			<path class="st4" d="M205.3,358.1c0.2,0.4,0.5,0.8,0.8,1.2c0.2,0.4,0.5,0.7,0.8,1.1c-0.1,0-0.2,0.1-0.2,0.1c-0.1,0-0.3,0-0.4,0
				c-0.4,0-0.7,0-1.1,0c-0.2,0-0.3,0-0.3-0.2c-0.3-0.4-0.5-0.8-0.8-1.2c-0.1-0.2-0.2-0.4-0.4-0.5c-0.1-0.2-0.2-0.2-0.4-0.2
				c-0.1,0-0.1,0-0.2,0c-0.1,0-0.1,0.1-0.1,0.1c0,0.1,0,0.2,0,0.3c0,0.3,0,0.6,0,0.9c0,0.2,0,0.5,0,0.7c-0.1,0-0.2,0-0.2,0
				c-0.4,0-0.7,0-1.1,0c-0.1,0-0.2,0-0.4-0.1c-0.1-0.1-0.1-0.3-0.1-0.4c0.1-0.5,0.1-1,0.1-1.5c0-0.4,0-0.7,0-1.1c0-0.3,0-0.5,0-0.8
				c0-0.5,0-1,0.1-1.6c0-0.1,0-0.3,0-0.4c0-0.1,0-0.2,0-0.3c0-0.1,0.1-0.2,0.2-0.2c0,0,0.1,0,0.1,0c0.1,0,0.2,0,0.3,0
				c0.6,0.1,1.3,0.1,1.9,0.1c0.3,0,0.6,0,1,0.1c1,0.2,1.5,0.6,1.9,1.5c0.2,0.8,0.1,1.5-0.5,2c-0.1,0.1-0.3,0.2-0.5,0.3
				C205.5,358,205.4,358,205.3,358.1z M202.9,355.5c-0.1,0.4,0,0.8,0,1.2c0,0.1,0,0.2,0,0.2c0.1,0,0.2,0.1,0.3,0.1
				c0.1,0,0.2,0,0.2,0c0.3,0,0.6,0,1,0c0.3,0,0.5-0.2,0.5-0.5c0-0.1,0-0.3,0-0.4c-0.1-0.4-0.2-0.5-0.6-0.6c-0.3,0-0.7-0.1-1,0
				C203.1,355.5,203,355.5,202.9,355.5z"/>
			<path class="st4" d="M195.5,354.1c0.1,0,0.3-0.1,0.4-0.1c0.4,0,0.8,0,1.3,0c0.2,0,0.3,0.1,0.3,0.2c0.1,0.3,0.2,0.5,0.3,0.8
				c0.1,0.3,0.3,0.7,0.4,1c0.1,0.2,0.1,0.3,0.2,0.5c0.4,0.9,0.7,1.8,1.2,2.7c0.1,0.2,0.2,0.5,0.3,0.8c0.1,0.2,0,0.3-0.2,0.4
				c0,0-0.1,0-0.1,0c-0.4-0.1-0.7,0-1.1,0c-0.2,0-0.3,0-0.3-0.2c-0.1-0.2-0.1-0.4-0.2-0.6c0-0.1-0.1-0.2-0.3-0.2
				c-0.3,0-0.6-0.1-0.9-0.1c-0.5,0-0.9,0-1.4,0c-0.1,0-0.2,0-0.2,0c-0.1,0-0.2,0.1-0.2,0.1c-0.1,0.1-0.1,0.3-0.2,0.4
				c-0.2,0.5-0.2,0.5-0.7,0.5c-0.3,0-0.6,0-0.9,0c-0.3,0-0.4-0.1-0.3-0.4c0.1-0.2,0.2-0.5,0.3-0.7c0.7-1.5,1.4-2.9,2.1-4.4
				C195.3,354.5,195.4,354.3,195.5,354.1z M196.7,357.8c0.4,0,0.4-0.2,0.3-0.4c-0.1-0.4-0.2-0.7-0.3-1.1c0-0.1-0.1-0.3-0.3-0.3
				c-0.1,0-0.2,0.1-0.3,0.2c-0.1,0.4-0.3,0.7-0.4,1.1c0,0.1,0,0.1-0.1,0.2c0,0.1,0,0.2,0.1,0.2c0,0,0.1,0,0.1,0
				C196.2,357.8,196.4,357.8,196.7,357.8z"/>
			<path class="st4" d="M192.1,354.9c0,0.2-0.1,0.2-0.2,0.3c-0.2,0.2-0.3,0.3-0.5,0.5c0,0-0.1,0.1-0.2,0.1c-0.1,0.1-0.2,0.1-0.3,0
				c-0.1,0-0.1-0.1-0.2-0.1c-0.7-0.4-1.4-0.4-2.1,0c-0.2,0.1-0.4,0.3-0.5,0.6c-0.2,0.5-0.3,1.1-0.1,1.6c0.2,0.8,1.1,1.3,1.9,1.1
				c0.3-0.1,0.6-0.2,0.9-0.4c0.1,0,0.1-0.1,0.2-0.1c0.1,0,0.2,0.1,0.3,0.2c0.2,0.3,0.5,0.6,0.7,0.9c0,0,0,0,0,0.1
				c0,0-0.1,0.1-0.1,0.1c-0.5,0.4-1.1,0.7-1.7,0.8c-0.2,0-0.5,0-0.7,0c-0.6,0-1.1-0.1-1.6-0.3c-0.6-0.3-1.1-0.7-1.3-1.3
				c-0.1-0.3-0.2-0.6-0.3-1c0-0.1,0-0.1,0-0.2c0-0.9,0.1-1.8,0.7-2.6c0.5-0.7,1.3-1.1,2.1-1.2c0.6-0.1,1.1,0,1.7,0.1
				c0.2,0,0.3,0.1,0.4,0.2c0.3,0.2,0.5,0.3,0.8,0.5C192,354.8,192,354.9,192.1,354.9z"/>
		</g>
	</g>
</g>
</svg>
